<svg id="canvas" height="100%" xmlns="http://www.w3.org/2000/svg" version="1.1" xmlns:xlink="http://www.w3.org/1999/xlink" viewBox="0 0 700 512"><rect width="700" height="512" fill="#000000"></rect><line x1="0" y1="33.333333333333336" x2="33.333333333333336" y2="0" stroke-linecap="square" stroke-width="6" stroke="#be326c"></line><line x1="33.333333333333336" y1="33.333333333333336" x2="66.66666666666667" y2="0" stroke-linecap="square" stroke-width="6" stroke="#b7306b"></line><line x1="66.66666666666667" y1="0" x2="100" y2="33.333333333333336" stroke-linecap="square" stroke-width="6" stroke="#b02e6a"></line><line x1="100" y1="33.333333333333336" x2="133.33333333333334" y2="0" stroke-linecap="square" stroke-width="6" stroke="#a92b6a"></line><line x1="133.33333333333334" y1="33.333333333333336" x2="166.66666666666669" y2="0" stroke-linecap="square" stroke-width="6" stroke="#a22969"></line><line x1="166.66666666666669" y1="0" x2="200.00000000000003" y2="33.333333333333336" stroke-linecap="square" stroke-width="6" stroke="#9b2768"></line><line x1="200.00000000000003" y1="0" x2="233.33333333333337" y2="33.333333333333336" stroke-linecap="square" stroke-width="6" stroke="#942567"></line><line x1="233.33333333333337" y1="33.333333333333336" x2="266.6666666666667" y2="0" stroke-linecap="square" stroke-width="6" stroke="#8d2266"></line><line x1="266.6666666666667" y1="33.333333333333336" x2="300" y2="0" stroke-linecap="square" stroke-width="6" stroke="#862066"></line><line x1="300" y1="0" x2="333.3333333333333" y2="33.333333333333336" stroke-linecap="square" stroke-width="6" stroke="#7f1e65"></line><line x1="333.3333333333333" y1="0" x2="366.66666666666663" y2="33.333333333333336" stroke-linecap="square" stroke-width="6" stroke="#781c64"></line><line x1="366.66666666666663" y1="33.333333333333336" x2="399.99999999999994" y2="0" stroke-linecap="square" stroke-width="6" stroke="#711963"></line><line x1="399.99999999999994" y1="33.333333333333336" x2="433.33333333333326" y2="0" stroke-linecap="square" stroke-width="6" stroke="#6a1762"></line><line x1="433.33333333333326" y1="33.333333333333336" x2="466.6666666666666" y2="0" stroke-linecap="square" stroke-width="6" stroke="#631562"></line><line x1="466.6666666666666" y1="33.333333333333336" x2="499.9999999999999" y2="0" stroke-linecap="square" stroke-width="6" stroke="#5c1361"></line><line x1="499.9999999999999" y1="33.333333333333336" x2="533.3333333333333" y2="0" stroke-linecap="square" stroke-width="6" stroke="#551060"></line><line x1="533.3333333333333" y1="33.333333333333336" x2="566.6666666666666" y2="0" stroke-linecap="square" stroke-width="6" stroke="#4e0e5f"></line><line x1="566.6666666666666" y1="33.333333333333336" x2="600" y2="0" stroke-linecap="square" stroke-width="6" stroke="#470c5e"></line><line x1="600" y1="0" x2="633.3333333333334" y2="33.333333333333336" stroke-linecap="square" stroke-width="6" stroke="#400a5e"></line><line x1="633.3333333333334" y1="33.333333333333336" x2="666.6666666666667" y2="0" stroke-linecap="square" stroke-width="6" stroke="#39075d"></line><line x1="666.6666666666667" y1="0" x2="700.0000000000001" y2="33.333333333333336" stroke-linecap="square" stroke-width="6" stroke="#32055c"></line><line x1="0" y1="66.66666666666667" x2="33.333333333333336" y2="33.333333333333336" stroke-linecap="square" stroke-width="6" stroke="#be326c"></line><line x1="33.333333333333336" y1="33.333333333333336" x2="66.66666666666667" y2="66.66666666666667" stroke-linecap="square" stroke-width="6" stroke="#b7306b"></line><line x1="66.66666666666667" y1="33.333333333333336" x2="100" y2="66.66666666666667" stroke-linecap="square" stroke-width="6" stroke="#b02e6a"></line><line x1="100" y1="66.66666666666667" x2="133.33333333333334" y2="33.333333333333336" stroke-linecap="square" stroke-width="6" stroke="#a92b6a"></line><line x1="133.33333333333334" y1="33.333333333333336" x2="166.66666666666669" y2="66.66666666666667" stroke-linecap="square" stroke-width="6" stroke="#a22969"></line><line x1="166.66666666666669" y1="66.66666666666667" x2="200.00000000000003" y2="33.333333333333336" stroke-linecap="square" stroke-width="6" stroke="#9b2768"></line><line x1="200.00000000000003" y1="33.333333333333336" x2="233.33333333333337" y2="66.66666666666667" stroke-linecap="square" stroke-width="6" stroke="#942567"></line><line x1="233.33333333333337" y1="33.333333333333336" x2="266.6666666666667" y2="66.66666666666667" stroke-linecap="square" stroke-width="6" stroke="#8d2266"></line><line x1="266.6666666666667" y1="33.333333333333336" x2="300" y2="66.66666666666667" stroke-linecap="square" stroke-width="6" stroke="#862066"></line><line x1="300" y1="66.66666666666667" x2="333.3333333333333" y2="33.333333333333336" stroke-linecap="square" stroke-width="6" stroke="#7f1e65"></line><line x1="333.3333333333333" y1="66.66666666666667" x2="366.66666666666663" y2="33.333333333333336" stroke-linecap="square" stroke-width="6" stroke="#781c64"></line><line x1="366.66666666666663" y1="33.333333333333336" x2="399.99999999999994" y2="66.66666666666667" stroke-linecap="square" stroke-width="6" stroke="#711963"></line><line x1="399.99999999999994" y1="33.333333333333336" x2="433.33333333333326" y2="66.66666666666667" stroke-linecap="square" stroke-width="6" stroke="#6a1762"></line><line x1="433.33333333333326" y1="66.66666666666667" x2="466.6666666666666" y2="33.333333333333336" stroke-linecap="square" stroke-width="6" stroke="#631562"></line><line x1="466.6666666666666" y1="33.333333333333336" x2="499.9999999999999" y2="66.66666666666667" stroke-linecap="square" stroke-width="6" stroke="#5c1361"></line><line x1="499.9999999999999" y1="33.333333333333336" x2="533.3333333333333" y2="66.66666666666667" stroke-linecap="square" stroke-width="6" stroke="#551060"></line><line x1="533.3333333333333" y1="66.66666666666667" x2="566.6666666666666" y2="33.333333333333336" stroke-linecap="square" stroke-width="6" stroke="#4e0e5f"></line><line x1="566.6666666666666" y1="66.66666666666667" x2="600" y2="33.333333333333336" stroke-linecap="square" stroke-width="6" stroke="#470c5e"></line><line x1="600" y1="66.66666666666667" x2="633.3333333333334" y2="33.333333333333336" stroke-linecap="square" stroke-width="6" stroke="#400a5e"></line><line x1="633.3333333333334" y1="33.333333333333336" x2="666.6666666666667" y2="66.66666666666667" stroke-linecap="square" stroke-width="6" stroke="#39075d"></line><line x1="666.6666666666667" y1="33.333333333333336" x2="700.0000000000001" y2="66.66666666666667" stroke-linecap="square" stroke-width="6" stroke="#32055c"></line><line x1="0" y1="100" x2="33.333333333333336" y2="66.66666666666667" stroke-linecap="square" stroke-width="6" stroke="#be326c"></line><line x1="33.333333333333336" y1="100" x2="66.66666666666667" y2="66.66666666666667" stroke-linecap="square" stroke-width="6" stroke="#b7306b"></line><line x1="66.66666666666667" y1="100" x2="100" y2="66.66666666666667" stroke-linecap="square" stroke-width="6" stroke="#b02e6a"></line><line x1="100" y1="66.66666666666667" x2="133.33333333333334" y2="100" stroke-linecap="square" stroke-width="6" stroke="#a92b6a"></line><line x1="133.33333333333334" y1="100" x2="166.66666666666669" y2="66.66666666666667" stroke-linecap="square" stroke-width="6" stroke="#a22969"></line><line x1="166.66666666666669" y1="66.66666666666667" x2="200.00000000000003" y2="100" stroke-linecap="square" stroke-width="6" stroke="#9b2768"></line><line x1="200.00000000000003" y1="66.66666666666667" x2="233.33333333333337" y2="100" stroke-linecap="square" stroke-width="6" stroke="#942567"></line><line x1="233.33333333333337" y1="66.66666666666667" x2="266.6666666666667" y2="100" stroke-linecap="square" stroke-width="6" stroke="#8d2266"></line><line x1="266.6666666666667" y1="66.66666666666667" x2="300" y2="100" stroke-linecap="square" stroke-width="6" stroke="#862066"></line><line x1="300" y1="66.66666666666667" x2="333.3333333333333" y2="100" stroke-linecap="square" stroke-width="6" stroke="#7f1e65"></line><line x1="333.3333333333333" y1="66.66666666666667" x2="366.66666666666663" y2="100" stroke-linecap="square" stroke-width="6" stroke="#781c64"></line><line x1="366.66666666666663" y1="66.66666666666667" x2="399.99999999999994" y2="100" stroke-linecap="square" stroke-width="6" stroke="#711963"></line><line x1="399.99999999999994" y1="100" x2="433.33333333333326" y2="66.66666666666667" stroke-linecap="square" stroke-width="6" stroke="#6a1762"></line><line x1="433.33333333333326" y1="100" x2="466.6666666666666" y2="66.66666666666667" stroke-linecap="square" stroke-width="6" stroke="#631562"></line><line x1="466.6666666666666" y1="100" x2="499.9999999999999" y2="66.66666666666667" stroke-linecap="square" stroke-width="6" stroke="#5c1361"></line><line x1="499.9999999999999" y1="66.66666666666667" x2="533.3333333333333" y2="100" stroke-linecap="square" stroke-width="6" stroke="#551060"></line><line x1="533.3333333333333" y1="100" x2="566.6666666666666" y2="66.66666666666667" stroke-linecap="square" stroke-width="6" stroke="#4e0e5f"></line><line x1="566.6666666666666" y1="100" x2="600" y2="66.66666666666667" stroke-linecap="square" stroke-width="6" stroke="#470c5e"></line><line x1="600" y1="66.66666666666667" x2="633.3333333333334" y2="100" stroke-linecap="square" stroke-width="6" stroke="#400a5e"></line><line x1="633.3333333333334" y1="66.66666666666667" x2="666.6666666666667" y2="100" stroke-linecap="square" stroke-width="6" stroke="#39075d"></line><line x1="666.6666666666667" y1="100" x2="700.0000000000001" y2="66.66666666666667" stroke-linecap="square" stroke-width="6" stroke="#32055c"></line><line x1="0" y1="133.33333333333334" x2="33.333333333333336" y2="100" stroke-linecap="square" stroke-width="6" stroke="#be326c"></line><line x1="33.333333333333336" y1="100" x2="66.66666666666667" y2="133.33333333333334" stroke-linecap="square" stroke-width="6" stroke="#b7306b"></line><line x1="66.66666666666667" y1="133.33333333333334" x2="100" y2="100" stroke-linecap="square" stroke-width="6" stroke="#b02e6a"></line><line x1="100" y1="100" x2="133.33333333333334" y2="133.33333333333334" stroke-linecap="square" stroke-width="6" stroke="#a92b6a"></line><line x1="133.33333333333334" y1="133.33333333333334" x2="166.66666666666669" y2="100" stroke-linecap="square" stroke-width="6" stroke="#a22969"></line><line x1="166.66666666666669" y1="133.33333333333334" x2="200.00000000000003" y2="100" stroke-linecap="square" stroke-width="6" stroke="#9b2768"></line><line x1="200.00000000000003" y1="133.33333333333334" x2="233.33333333333337" y2="100" stroke-linecap="square" stroke-width="6" stroke="#942567"></line><line x1="233.33333333333337" y1="100" x2="266.6666666666667" y2="133.33333333333334" stroke-linecap="square" stroke-width="6" stroke="#8d2266"></line><line x1="266.6666666666667" y1="133.33333333333334" x2="300" y2="100" stroke-linecap="square" stroke-width="6" stroke="#862066"></line><line x1="300" y1="133.33333333333334" x2="333.3333333333333" y2="100" stroke-linecap="square" stroke-width="6" stroke="#7f1e65"></line><line x1="333.3333333333333" y1="133.33333333333334" x2="366.66666666666663" y2="100" stroke-linecap="square" stroke-width="6" stroke="#781c64"></line><line x1="366.66666666666663" y1="100" x2="399.99999999999994" y2="133.33333333333334" stroke-linecap="square" stroke-width="6" stroke="#711963"></line><line x1="399.99999999999994" y1="100" x2="433.33333333333326" y2="133.33333333333334" stroke-linecap="square" stroke-width="6" stroke="#6a1762"></line><line x1="433.33333333333326" y1="100" x2="466.6666666666666" y2="133.33333333333334" stroke-linecap="square" stroke-width="6" stroke="#631562"></line><line x1="466.6666666666666" y1="133.33333333333334" x2="499.9999999999999" y2="100" stroke-linecap="square" stroke-width="6" stroke="#5c1361"></line><line x1="499.9999999999999" y1="133.33333333333334" x2="533.3333333333333" y2="100" stroke-linecap="square" stroke-width="6" stroke="#551060"></line><line x1="533.3333333333333" y1="100" x2="566.6666666666666" y2="133.33333333333334" stroke-linecap="square" stroke-width="6" stroke="#4e0e5f"></line><line x1="566.6666666666666" y1="100" x2="600" y2="133.33333333333334" stroke-linecap="square" stroke-width="6" stroke="#470c5e"></line><line x1="600" y1="133.33333333333334" x2="633.3333333333334" y2="100" stroke-linecap="square" stroke-width="6" stroke="#400a5e"></line><line x1="633.3333333333334" y1="133.33333333333334" x2="666.6666666666667" y2="100" stroke-linecap="square" stroke-width="6" stroke="#39075d"></line><line x1="666.6666666666667" y1="100" x2="700.0000000000001" y2="133.33333333333334" stroke-linecap="square" stroke-width="6" stroke="#32055c"></line><line x1="0" y1="166.66666666666669" x2="33.333333333333336" y2="133.33333333333334" stroke-linecap="square" stroke-width="6" stroke="#be326c"></line><line x1="33.333333333333336" y1="133.33333333333334" x2="66.66666666666667" y2="166.66666666666669" stroke-linecap="square" stroke-width="6" stroke="#b7306b"></line><line x1="66.66666666666667" y1="166.66666666666669" x2="100" y2="133.33333333333334" stroke-linecap="square" stroke-width="6" stroke="#b02e6a"></line><line x1="100" y1="133.33333333333334" x2="133.33333333333334" y2="166.66666666666669" stroke-linecap="square" stroke-width="6" stroke="#a92b6a"></line><line x1="133.33333333333334" y1="133.33333333333334" x2="166.66666666666669" y2="166.66666666666669" stroke-linecap="square" stroke-width="6" stroke="#a22969"></line><line x1="166.66666666666669" y1="166.66666666666669" x2="200.00000000000003" y2="133.33333333333334" stroke-linecap="square" stroke-width="6" stroke="#9b2768"></line><line x1="200.00000000000003" y1="166.66666666666669" x2="233.33333333333337" y2="133.33333333333334" stroke-linecap="square" stroke-width="6" stroke="#942567"></line><line x1="233.33333333333337" y1="133.33333333333334" x2="266.6666666666667" y2="166.66666666666669" stroke-linecap="square" stroke-width="6" stroke="#8d2266"></line><line x1="266.6666666666667" y1="166.66666666666669" x2="300" y2="133.33333333333334" stroke-linecap="square" stroke-width="6" stroke="#862066"></line><line x1="300" y1="133.33333333333334" x2="333.3333333333333" y2="166.66666666666669" stroke-linecap="square" stroke-width="6" stroke="#7f1e65"></line><line x1="333.3333333333333" y1="133.33333333333334" x2="366.66666666666663" y2="166.66666666666669" stroke-linecap="square" stroke-width="6" stroke="#781c64"></line><line x1="366.66666666666663" y1="133.33333333333334" x2="399.99999999999994" y2="166.66666666666669" stroke-linecap="square" stroke-width="6" stroke="#711963"></line><line x1="399.99999999999994" y1="133.33333333333334" x2="433.33333333333326" y2="166.66666666666669" stroke-linecap="square" stroke-width="6" stroke="#6a1762"></line><line x1="433.33333333333326" y1="133.33333333333334" x2="466.6666666666666" y2="166.66666666666669" stroke-linecap="square" stroke-width="6" stroke="#631562"></line><line x1="466.6666666666666" y1="133.33333333333334" x2="499.9999999999999" y2="166.66666666666669" stroke-linecap="square" stroke-width="6" stroke="#5c1361"></line><line x1="499.9999999999999" y1="133.33333333333334" x2="533.3333333333333" y2="166.66666666666669" stroke-linecap="square" stroke-width="6" stroke="#551060"></line><line x1="533.3333333333333" y1="133.33333333333334" x2="566.6666666666666" y2="166.66666666666669" stroke-linecap="square" stroke-width="6" stroke="#4e0e5f"></line><line x1="566.6666666666666" y1="133.33333333333334" x2="600" y2="166.66666666666669" stroke-linecap="square" stroke-width="6" stroke="#470c5e"></line><line x1="600" y1="166.66666666666669" x2="633.3333333333334" y2="133.33333333333334" stroke-linecap="square" stroke-width="6" stroke="#400a5e"></line><line x1="633.3333333333334" y1="133.33333333333334" x2="666.6666666666667" y2="166.66666666666669" stroke-linecap="square" stroke-width="6" stroke="#39075d"></line><line x1="666.6666666666667" y1="166.66666666666669" x2="700.0000000000001" y2="133.33333333333334" stroke-linecap="square" stroke-width="6" stroke="#32055c"></line><line x1="0" y1="166.66666666666669" x2="33.333333333333336" y2="200.00000000000003" stroke-linecap="square" stroke-width="6" stroke="#be326c"></line><line x1="33.333333333333336" y1="166.66666666666669" x2="66.66666666666667" y2="200.00000000000003" stroke-linecap="square" stroke-width="6" stroke="#b7306b"></line><line x1="66.66666666666667" y1="200.00000000000003" x2="100" y2="166.66666666666669" stroke-linecap="square" stroke-width="6" stroke="#b02e6a"></line><line x1="100" y1="166.66666666666669" x2="133.33333333333334" y2="200.00000000000003" stroke-linecap="square" stroke-width="6" stroke="#a92b6a"></line><line x1="133.33333333333334" y1="200.00000000000003" x2="166.66666666666669" y2="166.66666666666669" stroke-linecap="square" stroke-width="6" stroke="#a22969"></line><line x1="166.66666666666669" y1="166.66666666666669" x2="200.00000000000003" y2="200.00000000000003" stroke-linecap="square" stroke-width="6" stroke="#9b2768"></line><line x1="200.00000000000003" y1="166.66666666666669" x2="233.33333333333337" y2="200.00000000000003" stroke-linecap="square" stroke-width="6" stroke="#942567"></line><line x1="233.33333333333337" y1="166.66666666666669" x2="266.6666666666667" y2="200.00000000000003" stroke-linecap="square" stroke-width="6" stroke="#8d2266"></line><line x1="266.6666666666667" y1="200.00000000000003" x2="300" y2="166.66666666666669" stroke-linecap="square" stroke-width="6" stroke="#862066"></line><line x1="300" y1="200.00000000000003" x2="333.3333333333333" y2="166.66666666666669" stroke-linecap="square" stroke-width="6" stroke="#7f1e65"></line><line x1="333.3333333333333" y1="200.00000000000003" x2="366.66666666666663" y2="166.66666666666669" stroke-linecap="square" stroke-width="6" stroke="#781c64"></line><line x1="366.66666666666663" y1="166.66666666666669" x2="399.99999999999994" y2="200.00000000000003" stroke-linecap="square" stroke-width="6" stroke="#711963"></line><line x1="399.99999999999994" y1="200.00000000000003" x2="433.33333333333326" y2="166.66666666666669" stroke-linecap="square" stroke-width="6" stroke="#6a1762"></line><line x1="433.33333333333326" y1="166.66666666666669" x2="466.6666666666666" y2="200.00000000000003" stroke-linecap="square" stroke-width="6" stroke="#631562"></line><line x1="466.6666666666666" y1="166.66666666666669" x2="499.9999999999999" y2="200.00000000000003" stroke-linecap="square" stroke-width="6" stroke="#5c1361"></line><line x1="499.9999999999999" y1="200.00000000000003" x2="533.3333333333333" y2="166.66666666666669" stroke-linecap="square" stroke-width="6" stroke="#551060"></line><line x1="533.3333333333333" y1="166.66666666666669" x2="566.6666666666666" y2="200.00000000000003" stroke-linecap="square" stroke-width="6" stroke="#4e0e5f"></line><line x1="566.6666666666666" y1="166.66666666666669" x2="600" y2="200.00000000000003" stroke-linecap="square" stroke-width="6" stroke="#470c5e"></line><line x1="600" y1="166.66666666666669" x2="633.3333333333334" y2="200.00000000000003" stroke-linecap="square" stroke-width="6" stroke="#400a5e"></line><line x1="633.3333333333334" y1="166.66666666666669" x2="666.6666666666667" y2="200.00000000000003" stroke-linecap="square" stroke-width="6" stroke="#39075d"></line><line x1="666.6666666666667" y1="200.00000000000003" x2="700.0000000000001" y2="166.66666666666669" stroke-linecap="square" stroke-width="6" stroke="#32055c"></line><line x1="0" y1="200.00000000000003" x2="33.333333333333336" y2="233.33333333333337" stroke-linecap="square" stroke-width="6" stroke="#be326c"></line><line x1="33.333333333333336" y1="233.33333333333337" x2="66.66666666666667" y2="200.00000000000003" stroke-linecap="square" stroke-width="6" stroke="#b7306b"></line><line x1="66.66666666666667" y1="200.00000000000003" x2="100" y2="233.33333333333337" stroke-linecap="square" stroke-width="6" stroke="#b02e6a"></line><line x1="100" y1="200.00000000000003" x2="133.33333333333334" y2="233.33333333333337" stroke-linecap="square" stroke-width="6" stroke="#a92b6a"></line><line x1="133.33333333333334" y1="233.33333333333337" x2="166.66666666666669" y2="200.00000000000003" stroke-linecap="square" stroke-width="6" stroke="#a22969"></line><line x1="166.66666666666669" y1="200.00000000000003" x2="200.00000000000003" y2="233.33333333333337" stroke-linecap="square" stroke-width="6" stroke="#9b2768"></line><line x1="200.00000000000003" y1="233.33333333333337" x2="233.33333333333337" y2="200.00000000000003" stroke-linecap="square" stroke-width="6" stroke="#942567"></line><line x1="233.33333333333337" y1="233.33333333333337" x2="266.6666666666667" y2="200.00000000000003" stroke-linecap="square" stroke-width="6" stroke="#8d2266"></line><line x1="266.6666666666667" y1="200.00000000000003" x2="300" y2="233.33333333333337" stroke-linecap="square" stroke-width="6" stroke="#862066"></line><line x1="300" y1="200.00000000000003" x2="333.3333333333333" y2="233.33333333333337" stroke-linecap="square" stroke-width="6" stroke="#7f1e65"></line><line x1="333.3333333333333" y1="200.00000000000003" x2="366.66666666666663" y2="233.33333333333337" stroke-linecap="square" stroke-width="6" stroke="#781c64"></line><line x1="366.66666666666663" y1="233.33333333333337" x2="399.99999999999994" y2="200.00000000000003" stroke-linecap="square" stroke-width="6" stroke="#711963"></line><line x1="399.99999999999994" y1="200.00000000000003" x2="433.33333333333326" y2="233.33333333333337" stroke-linecap="square" stroke-width="6" stroke="#6a1762"></line><line x1="433.33333333333326" y1="233.33333333333337" x2="466.6666666666666" y2="200.00000000000003" stroke-linecap="square" stroke-width="6" stroke="#631562"></line><line x1="466.6666666666666" y1="200.00000000000003" x2="499.9999999999999" y2="233.33333333333337" stroke-linecap="square" stroke-width="6" stroke="#5c1361"></line><line x1="499.9999999999999" y1="200.00000000000003" x2="533.3333333333333" y2="233.33333333333337" stroke-linecap="square" stroke-width="6" stroke="#551060"></line><line x1="533.3333333333333" y1="233.33333333333337" x2="566.6666666666666" y2="200.00000000000003" stroke-linecap="square" stroke-width="6" stroke="#4e0e5f"></line><line x1="566.6666666666666" y1="200.00000000000003" x2="600" y2="233.33333333333337" stroke-linecap="square" stroke-width="6" stroke="#470c5e"></line><line x1="600" y1="233.33333333333337" x2="633.3333333333334" y2="200.00000000000003" stroke-linecap="square" stroke-width="6" stroke="#400a5e"></line><line x1="633.3333333333334" y1="233.33333333333337" x2="666.6666666666667" y2="200.00000000000003" stroke-linecap="square" stroke-width="6" stroke="#39075d"></line><line x1="666.6666666666667" y1="233.33333333333337" x2="700.0000000000001" y2="200.00000000000003" stroke-linecap="square" stroke-width="6" stroke="#32055c"></line><line x1="0" y1="233.33333333333337" x2="33.333333333333336" y2="266.6666666666667" stroke-linecap="square" stroke-width="6" stroke="#be326c"></line><line x1="33.333333333333336" y1="266.6666666666667" x2="66.66666666666667" y2="233.33333333333337" stroke-linecap="square" stroke-width="6" stroke="#b7306b"></line><line x1="66.66666666666667" y1="266.6666666666667" x2="100" y2="233.33333333333337" stroke-linecap="square" stroke-width="6" stroke="#b02e6a"></line><line x1="100" y1="266.6666666666667" x2="133.33333333333334" y2="233.33333333333337" stroke-linecap="square" stroke-width="6" stroke="#a92b6a"></line><line x1="133.33333333333334" y1="233.33333333333337" x2="166.66666666666669" y2="266.6666666666667" stroke-linecap="square" stroke-width="6" stroke="#a22969"></line><line x1="166.66666666666669" y1="266.6666666666667" x2="200.00000000000003" y2="233.33333333333337" stroke-linecap="square" stroke-width="6" stroke="#9b2768"></line><line x1="200.00000000000003" y1="233.33333333333337" x2="233.33333333333337" y2="266.6666666666667" stroke-linecap="square" stroke-width="6" stroke="#942567"></line><line x1="233.33333333333337" y1="233.33333333333337" x2="266.6666666666667" y2="266.6666666666667" stroke-linecap="square" stroke-width="6" stroke="#8d2266"></line><line x1="266.6666666666667" y1="233.33333333333337" x2="300" y2="266.6666666666667" stroke-linecap="square" stroke-width="6" stroke="#862066"></line><line x1="300" y1="233.33333333333337" x2="333.3333333333333" y2="266.6666666666667" stroke-linecap="square" stroke-width="6" stroke="#7f1e65"></line><line x1="333.3333333333333" y1="233.33333333333337" x2="366.66666666666663" y2="266.6666666666667" stroke-linecap="square" stroke-width="6" stroke="#781c64"></line><line x1="366.66666666666663" y1="266.6666666666667" x2="399.99999999999994" y2="233.33333333333337" stroke-linecap="square" stroke-width="6" stroke="#711963"></line><line x1="399.99999999999994" y1="233.33333333333337" x2="433.33333333333326" y2="266.6666666666667" stroke-linecap="square" stroke-width="6" stroke="#6a1762"></line><line x1="433.33333333333326" y1="266.6666666666667" x2="466.6666666666666" y2="233.33333333333337" stroke-linecap="square" stroke-width="6" stroke="#631562"></line><line x1="466.6666666666666" y1="266.6666666666667" x2="499.9999999999999" y2="233.33333333333337" stroke-linecap="square" stroke-width="6" stroke="#5c1361"></line><line x1="499.9999999999999" y1="266.6666666666667" x2="533.3333333333333" y2="233.33333333333337" stroke-linecap="square" stroke-width="6" stroke="#551060"></line><line x1="533.3333333333333" y1="266.6666666666667" x2="566.6666666666666" y2="233.33333333333337" stroke-linecap="square" stroke-width="6" stroke="#4e0e5f"></line><line x1="566.6666666666666" y1="233.33333333333337" x2="600" y2="266.6666666666667" stroke-linecap="square" stroke-width="6" stroke="#470c5e"></line><line x1="600" y1="266.6666666666667" x2="633.3333333333334" y2="233.33333333333337" stroke-linecap="square" stroke-width="6" stroke="#400a5e"></line><line x1="633.3333333333334" y1="266.6666666666667" x2="666.6666666666667" y2="233.33333333333337" stroke-linecap="square" stroke-width="6" stroke="#39075d"></line><line x1="666.6666666666667" y1="266.6666666666667" x2="700.0000000000001" y2="233.33333333333337" stroke-linecap="square" stroke-width="6" stroke="#32055c"></line><line x1="0" y1="300" x2="33.333333333333336" y2="266.6666666666667" stroke-linecap="square" stroke-width="6" stroke="#be326c"></line><line x1="33.333333333333336" y1="300" x2="66.66666666666667" y2="266.6666666666667" stroke-linecap="square" stroke-width="6" stroke="#b7306b"></line><line x1="66.66666666666667" y1="266.6666666666667" x2="100" y2="300" stroke-linecap="square" stroke-width="6" stroke="#b02e6a"></line><line x1="100" y1="266.6666666666667" x2="133.33333333333334" y2="300" stroke-linecap="square" stroke-width="6" stroke="#a92b6a"></line><line x1="133.33333333333334" y1="300" x2="166.66666666666669" y2="266.6666666666667" stroke-linecap="square" stroke-width="6" stroke="#a22969"></line><line x1="166.66666666666669" y1="266.6666666666667" x2="200.00000000000003" y2="300" stroke-linecap="square" stroke-width="6" stroke="#9b2768"></line><line x1="200.00000000000003" y1="300" x2="233.33333333333337" y2="266.6666666666667" stroke-linecap="square" stroke-width="6" stroke="#942567"></line><line x1="233.33333333333337" y1="300" x2="266.6666666666667" y2="266.6666666666667" stroke-linecap="square" stroke-width="6" stroke="#8d2266"></line><line x1="266.6666666666667" y1="300" x2="300" y2="266.6666666666667" stroke-linecap="square" stroke-width="6" stroke="#862066"></line><line x1="300" y1="266.6666666666667" x2="333.3333333333333" y2="300" stroke-linecap="square" stroke-width="6" stroke="#7f1e65"></line><line x1="333.3333333333333" y1="266.6666666666667" x2="366.66666666666663" y2="300" stroke-linecap="square" stroke-width="6" stroke="#781c64"></line><line x1="366.66666666666663" y1="266.6666666666667" x2="399.99999999999994" y2="300" stroke-linecap="square" stroke-width="6" stroke="#711963"></line><line x1="399.99999999999994" y1="300" x2="433.33333333333326" y2="266.6666666666667" stroke-linecap="square" stroke-width="6" stroke="#6a1762"></line><line x1="433.33333333333326" y1="266.6666666666667" x2="466.6666666666666" y2="300" stroke-linecap="square" stroke-width="6" stroke="#631562"></line><line x1="466.6666666666666" y1="300" x2="499.9999999999999" y2="266.6666666666667" stroke-linecap="square" stroke-width="6" stroke="#5c1361"></line><line x1="499.9999999999999" y1="266.6666666666667" x2="533.3333333333333" y2="300" stroke-linecap="square" stroke-width="6" stroke="#551060"></line><line x1="533.3333333333333" y1="300" x2="566.6666666666666" y2="266.6666666666667" stroke-linecap="square" stroke-width="6" stroke="#4e0e5f"></line><line x1="566.6666666666666" y1="300" x2="600" y2="266.6666666666667" stroke-linecap="square" stroke-width="6" stroke="#470c5e"></line><line x1="600" y1="300" x2="633.3333333333334" y2="266.6666666666667" stroke-linecap="square" stroke-width="6" stroke="#400a5e"></line><line x1="633.3333333333334" y1="266.6666666666667" x2="666.6666666666667" y2="300" stroke-linecap="square" stroke-width="6" stroke="#39075d"></line><line x1="666.6666666666667" y1="300" x2="700.0000000000001" y2="266.6666666666667" stroke-linecap="square" stroke-width="6" stroke="#32055c"></line><line x1="0" y1="333.3333333333333" x2="33.333333333333336" y2="300" stroke-linecap="square" stroke-width="6" stroke="#be326c"></line><line x1="33.333333333333336" y1="300" x2="66.66666666666667" y2="333.3333333333333" stroke-linecap="square" stroke-width="6" stroke="#b7306b"></line><line x1="66.66666666666667" y1="300" x2="100" y2="333.3333333333333" stroke-linecap="square" stroke-width="6" stroke="#b02e6a"></line><line x1="100" y1="300" x2="133.33333333333334" y2="333.3333333333333" stroke-linecap="square" stroke-width="6" stroke="#a92b6a"></line><line x1="133.33333333333334" y1="333.3333333333333" x2="166.66666666666669" y2="300" stroke-linecap="square" stroke-width="6" stroke="#a22969"></line><line x1="166.66666666666669" y1="300" x2="200.00000000000003" y2="333.3333333333333" stroke-linecap="square" stroke-width="6" stroke="#9b2768"></line><line x1="200.00000000000003" y1="333.3333333333333" x2="233.33333333333337" y2="300" stroke-linecap="square" stroke-width="6" stroke="#942567"></line><line x1="233.33333333333337" y1="300" x2="266.6666666666667" y2="333.3333333333333" stroke-linecap="square" stroke-width="6" stroke="#8d2266"></line><line x1="266.6666666666667" y1="333.3333333333333" x2="300" y2="300" stroke-linecap="square" stroke-width="6" stroke="#862066"></line><line x1="300" y1="333.3333333333333" x2="333.3333333333333" y2="300" stroke-linecap="square" stroke-width="6" stroke="#7f1e65"></line><line x1="333.3333333333333" y1="300" x2="366.66666666666663" y2="333.3333333333333" stroke-linecap="square" stroke-width="6" stroke="#781c64"></line><line x1="366.66666666666663" y1="300" x2="399.99999999999994" y2="333.3333333333333" stroke-linecap="square" stroke-width="6" stroke="#711963"></line><line x1="399.99999999999994" y1="333.3333333333333" x2="433.33333333333326" y2="300" stroke-linecap="square" stroke-width="6" stroke="#6a1762"></line><line x1="433.33333333333326" y1="333.3333333333333" x2="466.6666666666666" y2="300" stroke-linecap="square" stroke-width="6" stroke="#631562"></line><line x1="466.6666666666666" y1="333.3333333333333" x2="499.9999999999999" y2="300" stroke-linecap="square" stroke-width="6" stroke="#5c1361"></line><line x1="499.9999999999999" y1="300" x2="533.3333333333333" y2="333.3333333333333" stroke-linecap="square" stroke-width="6" stroke="#551060"></line><line x1="533.3333333333333" y1="333.3333333333333" x2="566.6666666666666" y2="300" stroke-linecap="square" stroke-width="6" stroke="#4e0e5f"></line><line x1="566.6666666666666" y1="333.3333333333333" x2="600" y2="300" stroke-linecap="square" stroke-width="6" stroke="#470c5e"></line><line x1="600" y1="333.3333333333333" x2="633.3333333333334" y2="300" stroke-linecap="square" stroke-width="6" stroke="#400a5e"></line><line x1="633.3333333333334" y1="300" x2="666.6666666666667" y2="333.3333333333333" stroke-linecap="square" stroke-width="6" stroke="#39075d"></line><line x1="666.6666666666667" y1="300" x2="700.0000000000001" y2="333.3333333333333" stroke-linecap="square" stroke-width="6" stroke="#32055c"></line><line x1="0" y1="333.3333333333333" x2="33.333333333333336" y2="366.66666666666663" stroke-linecap="square" stroke-width="6" stroke="#be326c"></line><line x1="33.333333333333336" y1="333.3333333333333" x2="66.66666666666667" y2="366.66666666666663" stroke-linecap="square" stroke-width="6" stroke="#b7306b"></line><line x1="66.66666666666667" y1="333.3333333333333" x2="100" y2="366.66666666666663" stroke-linecap="square" stroke-width="6" stroke="#b02e6a"></line><line x1="100" y1="333.3333333333333" x2="133.33333333333334" y2="366.66666666666663" stroke-linecap="square" stroke-width="6" stroke="#a92b6a"></line><line x1="133.33333333333334" y1="366.66666666666663" x2="166.66666666666669" y2="333.3333333333333" stroke-linecap="square" stroke-width="6" stroke="#a22969"></line><line x1="166.66666666666669" y1="333.3333333333333" x2="200.00000000000003" y2="366.66666666666663" stroke-linecap="square" stroke-width="6" stroke="#9b2768"></line><line x1="200.00000000000003" y1="366.66666666666663" x2="233.33333333333337" y2="333.3333333333333" stroke-linecap="square" stroke-width="6" stroke="#942567"></line><line x1="233.33333333333337" y1="366.66666666666663" x2="266.6666666666667" y2="333.3333333333333" stroke-linecap="square" stroke-width="6" stroke="#8d2266"></line><line x1="266.6666666666667" y1="366.66666666666663" x2="300" y2="333.3333333333333" stroke-linecap="square" stroke-width="6" stroke="#862066"></line><line x1="300" y1="366.66666666666663" x2="333.3333333333333" y2="333.3333333333333" stroke-linecap="square" stroke-width="6" stroke="#7f1e65"></line><line x1="333.3333333333333" y1="333.3333333333333" x2="366.66666666666663" y2="366.66666666666663" stroke-linecap="square" stroke-width="6" stroke="#781c64"></line><line x1="366.66666666666663" y1="333.3333333333333" x2="399.99999999999994" y2="366.66666666666663" stroke-linecap="square" stroke-width="6" stroke="#711963"></line><line x1="399.99999999999994" y1="333.3333333333333" x2="433.33333333333326" y2="366.66666666666663" stroke-linecap="square" stroke-width="6" stroke="#6a1762"></line><line x1="433.33333333333326" y1="366.66666666666663" x2="466.6666666666666" y2="333.3333333333333" stroke-linecap="square" stroke-width="6" stroke="#631562"></line><line x1="466.6666666666666" y1="333.3333333333333" x2="499.9999999999999" y2="366.66666666666663" stroke-linecap="square" stroke-width="6" stroke="#5c1361"></line><line x1="499.9999999999999" y1="366.66666666666663" x2="533.3333333333333" y2="333.3333333333333" stroke-linecap="square" stroke-width="6" stroke="#551060"></line><line x1="533.3333333333333" y1="333.3333333333333" x2="566.6666666666666" y2="366.66666666666663" stroke-linecap="square" stroke-width="6" stroke="#4e0e5f"></line><line x1="566.6666666666666" y1="333.3333333333333" x2="600" y2="366.66666666666663" stroke-linecap="square" stroke-width="6" stroke="#470c5e"></line><line x1="600" y1="333.3333333333333" x2="633.3333333333334" y2="366.66666666666663" stroke-linecap="square" stroke-width="6" stroke="#400a5e"></line><line x1="633.3333333333334" y1="333.3333333333333" x2="666.6666666666667" y2="366.66666666666663" stroke-linecap="square" stroke-width="6" stroke="#39075d"></line><line x1="666.6666666666667" y1="366.66666666666663" x2="700.0000000000001" y2="333.3333333333333" stroke-linecap="square" stroke-width="6" stroke="#32055c"></line><line x1="0" y1="399.99999999999994" x2="33.333333333333336" y2="366.66666666666663" stroke-linecap="square" stroke-width="6" stroke="#be326c"></line><line x1="33.333333333333336" y1="399.99999999999994" x2="66.66666666666667" y2="366.66666666666663" stroke-linecap="square" stroke-width="6" stroke="#b7306b"></line><line x1="66.66666666666667" y1="366.66666666666663" x2="100" y2="399.99999999999994" stroke-linecap="square" stroke-width="6" stroke="#b02e6a"></line><line x1="100" y1="399.99999999999994" x2="133.33333333333334" y2="366.66666666666663" stroke-linecap="square" stroke-width="6" stroke="#a92b6a"></line><line x1="133.33333333333334" y1="399.99999999999994" x2="166.66666666666669" y2="366.66666666666663" stroke-linecap="square" stroke-width="6" stroke="#a22969"></line><line x1="166.66666666666669" y1="366.66666666666663" x2="200.00000000000003" y2="399.99999999999994" stroke-linecap="square" stroke-width="6" stroke="#9b2768"></line><line x1="200.00000000000003" y1="366.66666666666663" x2="233.33333333333337" y2="399.99999999999994" stroke-linecap="square" stroke-width="6" stroke="#942567"></line><line x1="233.33333333333337" y1="366.66666666666663" x2="266.6666666666667" y2="399.99999999999994" stroke-linecap="square" stroke-width="6" stroke="#8d2266"></line><line x1="266.6666666666667" y1="366.66666666666663" x2="300" y2="399.99999999999994" stroke-linecap="square" stroke-width="6" stroke="#862066"></line><line x1="300" y1="366.66666666666663" x2="333.3333333333333" y2="399.99999999999994" stroke-linecap="square" stroke-width="6" stroke="#7f1e65"></line><line x1="333.3333333333333" y1="399.99999999999994" x2="366.66666666666663" y2="366.66666666666663" stroke-linecap="square" stroke-width="6" stroke="#781c64"></line><line x1="366.66666666666663" y1="366.66666666666663" x2="399.99999999999994" y2="399.99999999999994" stroke-linecap="square" stroke-width="6" stroke="#711963"></line><line x1="399.99999999999994" y1="399.99999999999994" x2="433.33333333333326" y2="366.66666666666663" stroke-linecap="square" stroke-width="6" stroke="#6a1762"></line><line x1="433.33333333333326" y1="399.99999999999994" x2="466.6666666666666" y2="366.66666666666663" stroke-linecap="square" stroke-width="6" stroke="#631562"></line><line x1="466.6666666666666" y1="366.66666666666663" x2="499.9999999999999" y2="399.99999999999994" stroke-linecap="square" stroke-width="6" stroke="#5c1361"></line><line x1="499.9999999999999" y1="366.66666666666663" x2="533.3333333333333" y2="399.99999999999994" stroke-linecap="square" stroke-width="6" stroke="#551060"></line><line x1="533.3333333333333" y1="399.99999999999994" x2="566.6666666666666" y2="366.66666666666663" stroke-linecap="square" stroke-width="6" stroke="#4e0e5f"></line><line x1="566.6666666666666" y1="399.99999999999994" x2="600" y2="366.66666666666663" stroke-linecap="square" stroke-width="6" stroke="#470c5e"></line><line x1="600" y1="366.66666666666663" x2="633.3333333333334" y2="399.99999999999994" stroke-linecap="square" stroke-width="6" stroke="#400a5e"></line><line x1="633.3333333333334" y1="399.99999999999994" x2="666.6666666666667" y2="366.66666666666663" stroke-linecap="square" stroke-width="6" stroke="#39075d"></line><line x1="666.6666666666667" y1="366.66666666666663" x2="700.0000000000001" y2="399.99999999999994" stroke-linecap="square" stroke-width="6" stroke="#32055c"></line><line x1="0" y1="399.99999999999994" x2="33.333333333333336" y2="433.33333333333326" stroke-linecap="square" stroke-width="6" stroke="#be326c"></line><line x1="33.333333333333336" y1="399.99999999999994" x2="66.66666666666667" y2="433.33333333333326" stroke-linecap="square" stroke-width="6" stroke="#b7306b"></line><line x1="66.66666666666667" y1="399.99999999999994" x2="100" y2="433.33333333333326" stroke-linecap="square" stroke-width="6" stroke="#b02e6a"></line><line x1="100" y1="399.99999999999994" x2="133.33333333333334" y2="433.33333333333326" stroke-linecap="square" stroke-width="6" stroke="#a92b6a"></line><line x1="133.33333333333334" y1="433.33333333333326" x2="166.66666666666669" y2="399.99999999999994" stroke-linecap="square" stroke-width="6" stroke="#a22969"></line><line x1="166.66666666666669" y1="433.33333333333326" x2="200.00000000000003" y2="399.99999999999994" stroke-linecap="square" stroke-width="6" stroke="#9b2768"></line><line x1="200.00000000000003" y1="433.33333333333326" x2="233.33333333333337" y2="399.99999999999994" stroke-linecap="square" stroke-width="6" stroke="#942567"></line><line x1="233.33333333333337" y1="433.33333333333326" x2="266.6666666666667" y2="399.99999999999994" stroke-linecap="square" stroke-width="6" stroke="#8d2266"></line><line x1="266.6666666666667" y1="433.33333333333326" x2="300" y2="399.99999999999994" stroke-linecap="square" stroke-width="6" stroke="#862066"></line><line x1="300" y1="399.99999999999994" x2="333.3333333333333" y2="433.33333333333326" stroke-linecap="square" stroke-width="6" stroke="#7f1e65"></line><line x1="333.3333333333333" y1="399.99999999999994" x2="366.66666666666663" y2="433.33333333333326" stroke-linecap="square" stroke-width="6" stroke="#781c64"></line><line x1="366.66666666666663" y1="433.33333333333326" x2="399.99999999999994" y2="399.99999999999994" stroke-linecap="square" stroke-width="6" stroke="#711963"></line><line x1="399.99999999999994" y1="433.33333333333326" x2="433.33333333333326" y2="399.99999999999994" stroke-linecap="square" stroke-width="6" stroke="#6a1762"></line><line x1="433.33333333333326" y1="399.99999999999994" x2="466.6666666666666" y2="433.33333333333326" stroke-linecap="square" stroke-width="6" stroke="#631562"></line><line x1="466.6666666666666" y1="399.99999999999994" x2="499.9999999999999" y2="433.33333333333326" stroke-linecap="square" stroke-width="6" stroke="#5c1361"></line><line x1="499.9999999999999" y1="399.99999999999994" x2="533.3333333333333" y2="433.33333333333326" stroke-linecap="square" stroke-width="6" stroke="#551060"></line><line x1="533.3333333333333" y1="399.99999999999994" x2="566.6666666666666" y2="433.33333333333326" stroke-linecap="square" stroke-width="6" stroke="#4e0e5f"></line><line x1="566.6666666666666" y1="433.33333333333326" x2="600" y2="399.99999999999994" stroke-linecap="square" stroke-width="6" stroke="#470c5e"></line><line x1="600" y1="433.33333333333326" x2="633.3333333333334" y2="399.99999999999994" stroke-linecap="square" stroke-width="6" stroke="#400a5e"></line><line x1="633.3333333333334" y1="399.99999999999994" x2="666.6666666666667" y2="433.33333333333326" stroke-linecap="square" stroke-width="6" stroke="#39075d"></line><line x1="666.6666666666667" y1="399.99999999999994" x2="700.0000000000001" y2="433.33333333333326" stroke-linecap="square" stroke-width="6" stroke="#32055c"></line><line x1="0" y1="433.33333333333326" x2="33.333333333333336" y2="466.6666666666666" stroke-linecap="square" stroke-width="6" stroke="#be326c"></line><line x1="33.333333333333336" y1="466.6666666666666" x2="66.66666666666667" y2="433.33333333333326" stroke-linecap="square" stroke-width="6" stroke="#b7306b"></line><line x1="66.66666666666667" y1="466.6666666666666" x2="100" y2="433.33333333333326" stroke-linecap="square" stroke-width="6" stroke="#b02e6a"></line><line x1="100" y1="466.6666666666666" x2="133.33333333333334" y2="433.33333333333326" stroke-linecap="square" stroke-width="6" stroke="#a92b6a"></line><line x1="133.33333333333334" y1="433.33333333333326" x2="166.66666666666669" y2="466.6666666666666" stroke-linecap="square" stroke-width="6" stroke="#a22969"></line><line x1="166.66666666666669" y1="466.6666666666666" x2="200.00000000000003" y2="433.33333333333326" stroke-linecap="square" stroke-width="6" stroke="#9b2768"></line><line x1="200.00000000000003" y1="466.6666666666666" x2="233.33333333333337" y2="433.33333333333326" stroke-linecap="square" stroke-width="6" stroke="#942567"></line><line x1="233.33333333333337" y1="433.33333333333326" x2="266.6666666666667" y2="466.6666666666666" stroke-linecap="square" stroke-width="6" stroke="#8d2266"></line><line x1="266.6666666666667" y1="466.6666666666666" x2="300" y2="433.33333333333326" stroke-linecap="square" stroke-width="6" stroke="#862066"></line><line x1="300" y1="433.33333333333326" x2="333.3333333333333" y2="466.6666666666666" stroke-linecap="square" stroke-width="6" stroke="#7f1e65"></line><line x1="333.3333333333333" y1="433.33333333333326" x2="366.66666666666663" y2="466.6666666666666" stroke-linecap="square" stroke-width="6" stroke="#781c64"></line><line x1="366.66666666666663" y1="466.6666666666666" x2="399.99999999999994" y2="433.33333333333326" stroke-linecap="square" stroke-width="6" stroke="#711963"></line><line x1="399.99999999999994" y1="433.33333333333326" x2="433.33333333333326" y2="466.6666666666666" stroke-linecap="square" stroke-width="6" stroke="#6a1762"></line><line x1="433.33333333333326" y1="466.6666666666666" x2="466.6666666666666" y2="433.33333333333326" stroke-linecap="square" stroke-width="6" stroke="#631562"></line><line x1="466.6666666666666" y1="466.6666666666666" x2="499.9999999999999" y2="433.33333333333326" stroke-linecap="square" stroke-width="6" stroke="#5c1361"></line><line x1="499.9999999999999" y1="433.33333333333326" x2="533.3333333333333" y2="466.6666666666666" stroke-linecap="square" stroke-width="6" stroke="#551060"></line><line x1="533.3333333333333" y1="433.33333333333326" x2="566.6666666666666" y2="466.6666666666666" stroke-linecap="square" stroke-width="6" stroke="#4e0e5f"></line><line x1="566.6666666666666" y1="433.33333333333326" x2="600" y2="466.6666666666666" stroke-linecap="square" stroke-width="6" stroke="#470c5e"></line><line x1="600" y1="466.6666666666666" x2="633.3333333333334" y2="433.33333333333326" stroke-linecap="square" stroke-width="6" stroke="#400a5e"></line><line x1="633.3333333333334" y1="433.33333333333326" x2="666.6666666666667" y2="466.6666666666666" stroke-linecap="square" stroke-width="6" stroke="#39075d"></line><line x1="666.6666666666667" y1="433.33333333333326" x2="700.0000000000001" y2="466.6666666666666" stroke-linecap="square" stroke-width="6" stroke="#32055c"></line><line x1="0" y1="499.9999999999999" x2="33.333333333333336" y2="466.6666666666666" stroke-linecap="square" stroke-width="6" stroke="#be326c"></line><line x1="33.333333333333336" y1="466.6666666666666" x2="66.66666666666667" y2="499.9999999999999" stroke-linecap="square" stroke-width="6" stroke="#b7306b"></line><line x1="66.66666666666667" y1="499.9999999999999" x2="100" y2="466.6666666666666" stroke-linecap="square" stroke-width="6" stroke="#b02e6a"></line><line x1="100" y1="466.6666666666666" x2="133.33333333333334" y2="499.9999999999999" stroke-linecap="square" stroke-width="6" stroke="#a92b6a"></line><line x1="133.33333333333334" y1="466.6666666666666" x2="166.66666666666669" y2="499.9999999999999" stroke-linecap="square" stroke-width="6" stroke="#a22969"></line><line x1="166.66666666666669" y1="499.9999999999999" x2="200.00000000000003" y2="466.6666666666666" stroke-linecap="square" stroke-width="6" stroke="#9b2768"></line><line x1="200.00000000000003" y1="466.6666666666666" x2="233.33333333333337" y2="499.9999999999999" stroke-linecap="square" stroke-width="6" stroke="#942567"></line><line x1="233.33333333333337" y1="466.6666666666666" x2="266.6666666666667" y2="499.9999999999999" stroke-linecap="square" stroke-width="6" stroke="#8d2266"></line><line x1="266.6666666666667" y1="466.6666666666666" x2="300" y2="499.9999999999999" stroke-linecap="square" stroke-width="6" stroke="#862066"></line><line x1="300" y1="499.9999999999999" x2="333.3333333333333" y2="466.6666666666666" stroke-linecap="square" stroke-width="6" stroke="#7f1e65"></line><line x1="333.3333333333333" y1="499.9999999999999" x2="366.66666666666663" y2="466.6666666666666" stroke-linecap="square" stroke-width="6" stroke="#781c64"></line><line x1="366.66666666666663" y1="499.9999999999999" x2="399.99999999999994" y2="466.6666666666666" stroke-linecap="square" stroke-width="6" stroke="#711963"></line><line x1="399.99999999999994" y1="466.6666666666666" x2="433.33333333333326" y2="499.9999999999999" stroke-linecap="square" stroke-width="6" stroke="#6a1762"></line><line x1="433.33333333333326" y1="466.6666666666666" x2="466.6666666666666" y2="499.9999999999999" stroke-linecap="square" stroke-width="6" stroke="#631562"></line><line x1="466.6666666666666" y1="466.6666666666666" x2="499.9999999999999" y2="499.9999999999999" stroke-linecap="square" stroke-width="6" stroke="#5c1361"></line><line x1="499.9999999999999" y1="499.9999999999999" x2="533.3333333333333" y2="466.6666666666666" stroke-linecap="square" stroke-width="6" stroke="#551060"></line><line x1="533.3333333333333" y1="499.9999999999999" x2="566.6666666666666" y2="466.6666666666666" stroke-linecap="square" stroke-width="6" stroke="#4e0e5f"></line><line x1="566.6666666666666" y1="466.6666666666666" x2="600" y2="499.9999999999999" stroke-linecap="square" stroke-width="6" stroke="#470c5e"></line><line x1="600" y1="466.6666666666666" x2="633.3333333333334" y2="499.9999999999999" stroke-linecap="square" stroke-width="6" stroke="#400a5e"></line><line x1="633.3333333333334" y1="466.6666666666666" x2="666.6666666666667" y2="499.9999999999999" stroke-linecap="square" stroke-width="6" stroke="#39075d"></line><line x1="666.6666666666667" y1="499.9999999999999" x2="700.0000000000001" y2="466.6666666666666" stroke-linecap="square" stroke-width="6" stroke="#32055c"></line><line x1="0" y1="499.9999999999999" x2="33.333333333333336" y2="533.3333333333333" stroke-linecap="square" stroke-width="6" stroke="#be326c"></line><line x1="33.333333333333336" y1="533.3333333333333" x2="66.66666666666667" y2="499.9999999999999" stroke-linecap="square" stroke-width="6" stroke="#b7306b"></line><line x1="66.66666666666667" y1="499.9999999999999" x2="100" y2="533.3333333333333" stroke-linecap="square" stroke-width="6" stroke="#b02e6a"></line><line x1="100" y1="499.9999999999999" x2="133.33333333333334" y2="533.3333333333333" stroke-linecap="square" stroke-width="6" stroke="#a92b6a"></line><line x1="133.33333333333334" y1="499.9999999999999" x2="166.66666666666669" y2="533.3333333333333" stroke-linecap="square" stroke-width="6" stroke="#a22969"></line><line x1="166.66666666666669" y1="533.3333333333333" x2="200.00000000000003" y2="499.9999999999999" stroke-linecap="square" stroke-width="6" stroke="#9b2768"></line><line x1="200.00000000000003" y1="533.3333333333333" x2="233.33333333333337" y2="499.9999999999999" stroke-linecap="square" stroke-width="6" stroke="#942567"></line><line x1="233.33333333333337" y1="533.3333333333333" x2="266.6666666666667" y2="499.9999999999999" stroke-linecap="square" stroke-width="6" stroke="#8d2266"></line><line x1="266.6666666666667" y1="499.9999999999999" x2="300" y2="533.3333333333333" stroke-linecap="square" stroke-width="6" stroke="#862066"></line><line x1="300" y1="499.9999999999999" x2="333.3333333333333" y2="533.3333333333333" stroke-linecap="square" stroke-width="6" stroke="#7f1e65"></line><line x1="333.3333333333333" y1="499.9999999999999" x2="366.66666666666663" y2="533.3333333333333" stroke-linecap="square" stroke-width="6" stroke="#781c64"></line><line x1="366.66666666666663" y1="533.3333333333333" x2="399.99999999999994" y2="499.9999999999999" stroke-linecap="square" stroke-width="6" stroke="#711963"></line><line x1="399.99999999999994" y1="499.9999999999999" x2="433.33333333333326" y2="533.3333333333333" stroke-linecap="square" stroke-width="6" stroke="#6a1762"></line><line x1="433.33333333333326" y1="533.3333333333333" x2="466.6666666666666" y2="499.9999999999999" stroke-linecap="square" stroke-width="6" stroke="#631562"></line><line x1="466.6666666666666" y1="499.9999999999999" x2="499.9999999999999" y2="533.3333333333333" stroke-linecap="square" stroke-width="6" stroke="#5c1361"></line><line x1="499.9999999999999" y1="533.3333333333333" x2="533.3333333333333" y2="499.9999999999999" stroke-linecap="square" stroke-width="6" stroke="#551060"></line><line x1="533.3333333333333" y1="499.9999999999999" x2="566.6666666666666" y2="533.3333333333333" stroke-linecap="square" stroke-width="6" stroke="#4e0e5f"></line><line x1="566.6666666666666" y1="499.9999999999999" x2="600" y2="533.3333333333333" stroke-linecap="square" stroke-width="6" stroke="#470c5e"></line><line x1="600" y1="533.3333333333333" x2="633.3333333333334" y2="499.9999999999999" stroke-linecap="square" stroke-width="6" stroke="#400a5e"></line><line x1="633.3333333333334" y1="533.3333333333333" x2="666.6666666666667" y2="499.9999999999999" stroke-linecap="square" stroke-width="6" stroke="#39075d"></line><line x1="666.6666666666667" y1="499.9999999999999" x2="700.0000000000001" y2="533.3333333333333" stroke-linecap="square" stroke-width="6" stroke="#32055c"></line></svg>