<svg xmlns="http://www.w3.org/2000/svg" version="1.1" xmlns:xlink="http://www.w3.org/1999/xlink" xmlns:svgjs="http://svgjs.dev/svgjs" viewBox="0 0 800 800" opacity="0.83"><defs><linearGradient x1="50%" y1="0%" x2="50%" y2="100%" id="gggyrate-grad"><stop stop-color="#32055C" stop-opacity="1" offset="0%"></stop><stop stop-color="#BE326C" stop-opacity="1" offset="100%"></stop></linearGradient></defs><g stroke-width="4" stroke="url(#gggyrate-grad)" fill="none"><path d="M372.94155511295855 9.744161340986182C389.6853208090597 0.07888482733494584 410.3146791909403 0.07888482733494584 427.05844488704145 9.746867185474855L724.4415775735818 181.44081752721888C741.1853432696829 191.10609404087006 751.5000224606232 208.97278519978357 751.5000224606232 228.30604407157477V571.6939447550627C751.5000224606232 591.027203626854 741.1853432696829 608.8938947857675 724.4415775735818 618.5618771439073L427.05844488704145 790.2558274856515C410.3146791909403 799.9211039993024 389.6853208090597 799.9211039993024 372.94155511295855 790.2531216411626L75.55842242641825 618.5591712994187C58.81465673031704 608.8938947857675 48.4999775393768 591.027203626854 48.4999775393768 571.6939447550627V228.30604407157477C48.4999775393768 208.97278519978357 58.81465673031704 191.10609404087006 75.55842242641825 181.4381116827302L372.94155511295855 9.744161340986182Z " transform="rotate(38, 400, 400)" opacity="0.05"></path><path d="M374.3656837912239 30.283951157075307C390.2281986612145 21.127373407300468 409.7718013387855 21.127373407300468 425.6343162087761 30.28651458869615L707.365705069709 192.94394122824315C723.2282199396997 202.10051897801793 733.0000212784851 219.02685797067284 733.0000212784851 237.34257690184347V562.6574301809374C733.0000212784851 580.973149112108 723.2282199396997 597.8994881047628 707.365705069709 607.0586292861585L425.6343162087761 769.7160559257054C409.7718013387855 778.8726336754803 390.2281986612145 778.8726336754803 374.3656837912239 769.7134924940847L92.63429493029099 607.0560658545377C76.77178006030033 597.8994881047628 66.99997872151488 580.973149112108 66.99997872151488 562.6574301809374V237.34257690184347C66.99997872151488 219.02685797067284 76.77178006030033 202.10051897801793 92.63429493029099 192.9413777966223L374.3656837912239 30.283951157075307Z " transform="rotate(36, 400, 400)" opacity="0.10"></path><path d="M375.7898124694892 50.82374097316443C390.7710765133693 42.17586198726596 409.2289234866307 42.17586198726596 424.2101875305108 50.8261619919175L690.2898325658364 204.44706492926736C705.2710966097163 213.0949439151658 714.5000200963472 229.0809307415621 714.5000200963472 246.37910973211217V553.6209156068119C714.5000200963472 570.919094597362 705.2710966097163 586.9050814237582 690.2898325658364 595.5553814284096L424.2101875305108 749.1762843657596C409.2289234866307 757.824163351658 390.7710765133693 757.824163351658 375.7898124694892 749.1738633470065L109.71016743416368 595.5529604096566C94.72890339028368 586.9050814237582 85.49997990365296 570.919094597362 85.49997990365296 553.6209156068119V246.37910973211217C85.49997990365296 229.0809307415621 94.72890339028368 213.0949439151658 109.71016743416368 204.4446439105144L375.7898124694892 50.82374097316443Z " transform="rotate(34, 400, 400)" opacity="0.16"></path><path d="M377.21394114775455 71.36353078925356C391.31395436552407 63.22435056723148 408.68604563447593 63.22435056723148 422.78605885224545 71.3658093951388L673.2139600619636 215.95018863029168C687.313973279733 224.08936885231367 696.000018914209 239.13500351245142 696.000018914209 255.41564256238087V544.5844010326866C696.000018914209 560.8650400826159 687.313973279733 575.9106747427536 673.2139600619636 584.0521335706609L422.78605885224545 728.6365128058138C408.68604563447593 736.7756930278358 391.31395436552407 736.7756930278358 377.21394114775455 728.6342341999286L126.78603993803642 584.0498549647758C112.68602672026697 575.9106747427536 103.99998108579098 560.8650400826159 103.99998108579098 544.5844010326866V255.41564256238087C103.99998108579098 239.13500351245142 112.68602672026697 224.08936885231367 126.78603993803642 215.9479100244065L377.21394114775455 71.36353078925356Z " transform="rotate(32, 400, 400)" opacity="0.21"></path><path d="M378.6380698260199 91.90329008776456C391.85683221767886 84.27280862961888 408.14316778232114 84.27280862961888 421.3619301739801 91.90542628078197L656.1380875580909 227.45328181373776C669.3568499497497 235.08376327188347 677.500017732071 249.18904576576256 677.500017732071 264.45214487507144V535.547855940983C677.500017732071 550.8109550502918 669.3568499497497 564.9162375441708 656.1380875580909 572.548855195334L421.3619301739801 708.0967107282897C408.14316778232114 715.7271921864354 391.85683221767886 715.7271921864354 378.6380698260199 708.0945745352724L143.86191244190917 572.5467190023166C130.6431500502503 564.9162375441708 122.49998226792906 550.8109550502918 122.49998226792906 535.547855940983V264.45214487507144C122.49998226792906 249.18904576576256 130.6431500502503 235.08376327188347 143.86191244190917 227.4511456207204L378.6380698260199 91.90329008776456Z " transform="rotate(30, 400, 400)" opacity="0.26"></path><path d="M380.0621985042852 112.44307990385369C392.39971006983353 105.32129720958437 407.6002899301666 105.32129720958437 419.93780149571467 112.44507368400326L639.0622150542181 238.95640551476203C651.3997266197664 246.07818820903134 659.0000165499329 259.24311853665176 659.0000165499329 273.48867770534V526.5113413668576C659.0000165499329 540.7569005355458 651.3997266197664 553.9218308631663 639.0622150542181 561.0456073375851L419.93780149571467 687.5569391683439C407.6002899301666 694.6787218626132 392.39971006983353 694.6787218626132 380.0621985042852 687.5549453881943L160.93778494578186 561.0436135574355C148.6002733802336 553.9218308631663 140.99998345006713 540.7569005355458 140.99998345006713 526.5113413668576V273.48867770534C140.99998345006713 259.24311853665176 148.6002733802336 246.07818820903134 160.93778494578186 238.9544117346125L380.0621985042852 112.44307990385369Z " transform="rotate(28, 400, 400)" opacity="0.31"></path><path d="M381.4863424413396 132.9828392023647C392.9426031807773 126.36975527197177 407.05742733680086 126.36975527197177 418.5136880762384 132.98469056964643L621.9863578091345 250.45949869820817C633.4426185485721 257.072582628601 640.5000306265838 269.29716078996296 640.5000306265838 282.5251800180306V517.474796275154C640.5000306265838 530.7028155032217 633.4426185485721 542.9273936645835 621.9863578091345 549.5423289622581L418.5136880762384 667.0171370908198C407.05742733680086 673.6302210212128 392.9426031807773 673.6302210212128 381.4863424413396 667.0152857235381L178.01367270844366 549.5404775949764C166.557411969006 542.9273936645835 159.49999989099427 530.7028155032217 159.49999989099427 517.474796275154V282.5251800180306C159.49999989099427 269.29716078996296 166.557411969006 257.072582628601 178.01367270844366 250.45764733092642L381.4863424413396 132.9828392023647Z " transform="rotate(26, 400, 400)" opacity="0.37"></path><path d="M382.9104558608159 153.5226290184538C393.485465774143 147.4182438519373 406.514534225857 147.4182438519373 417.0895441391841 153.52433797286778L604.9104700464727 261.9626223992324C615.4854799597997 268.06700756574895 622.0000141856567 279.35123356085217 622.0000141856567 291.5617128482993V508.4382817010286C622.0000141856567 520.6487609884757 615.4854799597997 531.9329869835789 604.9104700464727 538.0390811045093L417.0895441391841 646.477365530874C406.514534225857 652.5817506973905 393.485465774143 652.5817506973905 382.9104558608159 646.4756565764601L195.08952995352735 538.0373721500955C184.51452004020024 531.9329869835789 177.99998581434323 520.6487609884757 177.99998581434323 508.4382817010286V291.5617128482993C177.99998581434323 279.35123356085217 184.51452004020024 268.06700756574895 195.08952995352735 261.9609134448185L382.9104558608159 153.5226290184538Z " transform="rotate(24, 400, 400)" opacity="0.42"></path><path d="M384.3345845390813 174.062418834543C394.0283436262978 168.46673243190278 405.9716563737022 168.46673243190278 415.6654154609187 174.06398537608908L587.8345975426 273.46574610025664C597.5283566298165 279.0614325028968 603.5000130035187 289.4053063317415 603.5000130035187 300.598245678568V499.4017671269032C603.5000130035187 510.59470647372973 597.5283566298165 520.9385803025743 587.8345975426 526.5358332467606L415.6654154609187 625.9375939709281C405.9716563737022 631.5332803735682 394.0283436262978 631.5332803735682 384.3345845390813 625.936027429382L212.16540245740003 526.5342667052145C202.47164337018353 520.9385803025743 196.4999869964813 510.59470647372973 196.4999869964813 499.4017671269032V300.598245678568C196.4999869964813 289.4053063317415 202.47164337018353 279.0614325028968 212.16540245740003 273.4641795587106L384.3345845390813 174.062418834543Z " transform="rotate(22, 400, 400)" opacity="0.47"></path><path d="M385.7587132173466 194.60216287426493C394.5712214784525 189.51517523550112 405.4287785215475 189.51517523550112 414.2412867826534 194.6035870029432L570.7587250387272 284.9688240249137C579.5712332998331 290.0558116636775 585.0000118213807 299.45933332626356 585.0000118213807 309.6347327324695V490.36520677641056C585.0000118213807 500.54060618261644 579.5712332998331 509.9441278452025 570.7587250387272 515.0325396126445L414.2412867826534 605.397776634615C405.4287785215475 610.4847642733789 394.5712214784525 610.4847642733789 385.7587132173466 605.3963525059369L229.24127496127278 515.0311154839662C220.42876670016688 509.9441278452025 214.9999881786194 500.54060618261644 214.9999881786194 490.36520677641056V309.6347327324695C214.9999881786194 299.45933332626356 220.42876670016688 290.0558116636775 229.24127496127278 284.9673998962355L385.7587132173466 194.60216287426493Z " transform="rotate(20, 400, 400)" opacity="0.53"></path><path d="M387.18284189561194 215.14196794914312C395.11409933060725 210.5636790742557 404.88590066939275 210.5636790742557 412.81715810438806 215.14324966495354L553.6828525348544 296.47196298472704C561.6141099698498 301.05025185961443 566.5000106392425 309.5134213559419 566.5000106392425 318.6712808215272V481.32870746107415C566.5000106392425 490.4865669266594 561.6141099698498 498.9497364229869 553.6828525348544 503.52930701368473L412.81715810438806 584.8580203334582C404.88590066939275 589.4363092083456 395.11409933060725 589.4363092083456 387.18284189561194 584.8567386176478L246.31714746514547 503.52802529787436C238.38589003015016 498.9497364229869 233.4999893607574 490.4865669266594 233.4999893607574 481.32870746107415V318.6712808215272C233.4999893607574 309.5134213559419 238.38589003015016 301.05025185961443 246.31714746514547 296.4706812689166L387.18284189561194 215.14196794914312Z " transform="rotate(18, 400, 400)" opacity="0.58"></path><path d="M388.6069705738773 235.68175776523225C395.65697718276203 231.6121676542212 404.34302281723797 231.6121676542212 411.3930294261227 235.68289706817484L536.6069800309817 307.9750866857513C543.6569866398665 312.0446767967623 548.0000094571045 319.5674941268312 548.0000094571045 327.7078136517959V472.2921928869488C548.0000094571045 480.4325124119134 543.6569866398665 487.95532974198227 536.6069800309817 492.02605915593585L411.3930294261227 564.3182487735123C404.34302281723797 568.3878388845234 395.65697718276203 568.3878388845234 388.6069705738773 564.3171094705698L263.3930199690182 492.02491985299343C256.3430133601335 487.95532974198227 251.9999905428955 480.4325124119134 251.9999905428955 472.2921928869488V327.7078136517959C251.9999905428955 319.5674941268312 256.3430133601335 312.0446767967623 263.3930199690182 307.9739473828087L388.6069705738773 235.68175776523225Z " transform="rotate(16, 400, 400)" opacity="0.63"></path><path d="M390.0310992521426 256.2215018049542C396.19985503491677 252.66061045781953 403.8001449650833 252.66061045781953 409.96890074785733 256.222498695029L519.531107527109 319.4781646104084C525.6998633098832 323.03905595754304 529.5000082749664 329.6215211213532 529.5000082749664 336.74430070569736V463.2556325364561C529.5000082749664 470.37841212080025 525.6998633098832 476.9608772846105 519.531107527109 480.5227655218199L409.96890074785733 543.7784314371993C403.8001449650833 547.339322784334 396.19985503491677 547.339322784334 390.0310992521426 543.7774345471245L280.46889247289096 480.5217686317451C274.3001366901168 476.9608772846105 270.49999172503357 470.37841212080025 270.49999172503357 463.2556325364561V336.74430070569736C270.49999172503357 329.6215211213532 274.3001366901168 323.03905595754304 280.46889247289096 319.47716772033357L390.0310992521426 256.2215018049542Z " transform="rotate(14, 400, 400)" opacity="0.68"></path><path d="M391.45522793040794 276.7613145092269C396.7427328870715 273.70912192596865 403.2572671129285 273.70912192596865 408.54477206959206 276.7621689864339L502.45523502323636 330.9813111996162C507.74273997989985 334.0335037828745 511.00000709282835 339.6756167804261 511.00000709282835 345.78085642414965V454.2191408505143C511.00000709282835 460.32438049423786 507.74273997989985 465.96649349178944 502.45523502323636 469.0195405522546L408.54477206959206 523.238682765437C403.2572671129285 526.2908753486952 396.7427328870715 526.2908753486952 391.45522793040794 523.23782828823L297.54476497676364 469.01868607504775C292.2572600201001 465.96649349178944 288.99999290717165 460.32438049423786 288.99999290717165 454.2191408505143V345.78085642414965C288.99999290717165 339.6756167804261 292.2572600201001 334.0335037828745 297.54476497676364 330.98045672240926L391.45522793040794 276.7613145092269Z " transform="rotate(12, 400, 400)" opacity="0.74"></path><path d="M392.87935660867333 297.3010966959215C397.2856107392263 294.75760287653964 402.7143892607737 294.75760287653964 407.12064339132667 297.30180876026066L485.3793625193636 342.4844272712459C489.78561664991656 345.02792109062784 492.50000591069033 349.7296819219208 492.50000591069033 354.8173816250238V445.18261864699434C492.50000591069033 450.2703183500973 489.78561664991656 454.9720791813903 485.3793625193636 457.51628506511133L407.12064339132667 502.69890357609654C402.7143892607737 505.2423973954785 397.2856107392263 505.2423973954785 392.87935660867333 502.6981915117575L314.6206374806364 457.5155730007722C310.21438335008344 454.9720791813903 307.49999408930967 450.2703183500973 307.49999408930967 445.18261864699434V354.8173816250238C307.49999408930967 349.7296819219208 310.21438335008344 345.02792109062784 314.6206374806364 342.4837152069068L392.87935660867333 297.3010966959215Z " transform="rotate(10, 400, 400)" opacity="0.79"></path><path d="M394.30348528693867 317.84087888261615C397.828488591381 315.80608382711057 402.171511408619 315.80608382711057 405.69651471306133 317.8414485340874L468.30349001549087 353.98754334287565C471.8284933199333 356.0223383983812 474.00000472855226 359.7837470634156 474.00000472855226 363.8539068258979V436.1460964434744C474.00000472855226 440.2162562059567 471.8284933199333 443.97766487099113 468.30349001549087 446.0130295779679L405.69651471306133 482.15912438675616C402.171511408619 484.1939194422617 397.828488591381 484.1939194422617 394.30348528693867 482.1585547352849L331.69650998450913 446.0124599264967C328.1715066800667 443.97766487099113 325.99999527144774 440.2162562059567 325.99999527144774 436.1460964434744V363.8539068258979C325.99999527144774 359.7837470634156 328.1715066800667 356.0223383983812 331.69650998450913 353.98697369140433L394.30348528693867 317.84087888261615Z " transform="rotate(8, 400, 400)" opacity="0.84"></path><path d="M395.727613965204 338.3806686987052C398.37136644353575 336.85457240707615 401.62863355646425 336.85457240707615 404.272386034796 338.3810959373087L451.2276175116182 365.4906670438999C453.8713699899499 367.01676333552905 455.5000035464142 369.83781983430487 455.5000035464142 372.8904396561666V427.109581869349C455.5000035464142 430.1622016912107 453.8713699899499 432.9832581899865 451.2276175116182 434.5097817202191L404.272386034796 461.6193528268103C401.62863355646425 463.1454491184394 398.37136644353575 463.1454491184394 395.727613965204 461.6189255882068L348.7723824883818 434.5093544816157C346.1286300100501 432.9832581899865 344.4999964535858 430.1622016912107 344.4999964535858 427.109581869349V372.8904396561666C344.4999964535858 369.83781983430487 346.1286300100501 367.01676333552905 348.7723824883818 365.4902398052964L395.727613965204 338.3806686987052Z " transform="rotate(6, 400, 400)" opacity="0.89"></path><path d="M397.15174264346933 358.92044325600534C398.9142442956905 357.90304572825255 401.0857557043095 357.90304572825255 402.84825735653067 358.920728081741L434.15174500774543 376.99377548613506C435.91424665996664 378.01117301388786 437.00000236427616 379.89187734640507 437.00000236427616 381.92695722764626V418.07305203643443C437.00000236427616 420.1081319176756 435.91424665996664 421.98883625019283 434.15174500774543 423.00651860368123L402.84825735653067 441.07956600807535C401.0857557043095 442.0969635358281 398.9142442956905 442.0969635358281 397.15174264346933 441.07928118233974L365.84825499225457 423.0062337779456C364.08575334003336 421.98883625019283 362.9999976357239 420.1081319176756 362.9999976357239 418.07305203643443V381.92695722764626C362.9999976357239 379.89187734640507 364.08575334003336 378.01117301388786 365.84825499225457 376.99349066039946L397.15174264346933 358.92044325600534Z " transform="rotate(4, 400, 400)" opacity="0.95"></path><path d="M398.57587132173467 379.4602178133054C399.45712214784527 378.951519049429 400.54287785215473 378.951519049429 401.42412867826533 379.46036022617324L417.07587250387274 388.49688392837027C417.9571233299833 389.00558269224666 418.5000011821381 389.94593485850527 418.5000011821381 390.96347479912583V409.03652220351995C418.5000011821381 410.0540621441406 417.9571233299833 410.9944143103992 417.07587250387274 411.50325548714335L401.42412867826533 420.53977918934044C400.54287785215473 421.0484779532168 399.45712214784527 421.0484779532168 398.57587132173467 420.5396367764726L382.92412749612726 411.5031130742755C382.0428766700167 410.9944143103992 381.4999988178619 410.0540621441406 381.4999988178619 409.03652220351995V390.96347479912583C381.4999988178619 389.94593485850527 382.0428766700167 389.00558269224666 382.92412749612726 388.49674151550244L398.57587132173467 379.4602178133054Z " transform="rotate(2, 400, 400)" opacity="1.00"></path></g></svg>