<?xml version="1.0" encoding="UTF-8"?>
<svg version="1.1" xmlns="http://www.w3.org/2000/svg" width="320" height="320">
<path d="M0 0 C6.36203799 3.68494279 9.34083732 8.13067236 11.6796875 14.99609375 C14.05354391 26.15800978 14.09860638 37.51301846 14.3046875 48.87109375 C14.3429794 50.6380377 14.38203708 52.40496523 14.421875 54.171875 C14.5166182 58.44647713 14.60107842 62.72116574 14.6796875 66.99609375 C15.77966064 66.51527344 16.87963379 66.03445312 18.01293945 65.5390625 C24.14952806 62.95678405 29.60782782 62.03258221 36.0546875 64.0546875 C38.98721045 65.27541934 41.8440957 66.56592616 44.6796875 67.99609375 C44.6796875 68.65609375 44.6796875 69.31609375 44.6796875 69.99609375 C45.3396875 69.99609375 45.9996875 69.99609375 46.6796875 69.99609375 C48.1171875 71.6484375 48.1171875 71.6484375 49.6796875 73.93359375 C50.453125 75.02994141 50.453125 75.02994141 51.2421875 76.1484375 C55.94350873 85.46165265 54.83508547 95.84774841 54.63867188 105.98876953 C54.32505752 118.6325095 54.32505752 118.6325095 56.6796875 130.99609375 C57.3396875 131.65609375 57.9996875 132.31609375 58.6796875 132.99609375 C61.2572103 132.97906604 61.2572103 132.97906604 64.1171875 132.55859375 C69.37273769 131.89377715 69.37273769 131.89377715 72.6796875 132.99609375 C73.0546875 135.68359375 73.0546875 135.68359375 72.6796875 138.99609375 C68.59880158 143.07697967 65.23177716 145.09836108 59.4921875 145.43359375 C54.80196586 145.34177864 51.89257826 144.04103515 48.33984375 141.00390625 C39.57221885 130.40023754 42.55943103 109.63089911 42.80395508 96.73974609 C42.97460864 87.40282793 42.97460864 87.40282793 39.3046875 79 C35.86579633 75.9496374 33.26662801 74.56105206 28.6171875 74.30859375 C24.96314893 74.55849 23.5215605 75.08809491 20.2421875 76.99609375 C17.21787202 80.53675578 15.88689136 83.55741125 14.6796875 87.99609375 C14.33760254 89.13868652 13.99551758 90.2812793 13.64306641 91.45849609 C12.35906144 96.63459546 12.5009346 101.65128233 12.625 106.953125 C12.65026595 109.05533228 12.67498977 111.15754614 12.69921875 113.25976562 C12.74905366 116.54960956 12.80530229 119.83910683 12.87158203 123.12866211 C12.9317858 126.32017287 12.96744524 129.51122983 13 132.703125 C13.02691925 133.69061234 13.0538385 134.67809967 13.08157349 135.69551086 C13.08833099 136.61043808 13.0950885 137.5253653 13.10205078 138.46801758 C13.12442307 139.67425529 13.12442307 139.67425529 13.14724731 140.90486145 C12.6796875 142.99609375 12.6796875 142.99609375 10.85250854 144.82597351 C8.6796875 145.99609375 8.6796875 145.99609375 5.4921875 145.24609375 C2.6796875 143.99609375 2.6796875 143.99609375 1.6796875 142.99609375 C1.59651018 141.26235942 1.58333653 139.52521812 1.59790039 137.78955078 C1.6044313 136.67814728 1.61096222 135.56674377 1.61769104 134.42166138 C1.62912643 133.21130219 1.64056183 132.00094299 1.65234375 130.75390625 C1.66499088 128.21875137 1.67735178 125.68359505 1.68945312 123.1484375 C1.71429474 119.12999947 1.74183515 115.11163287 1.77563477 111.09326172 C1.80575982 107.23013831 1.82359065 103.36710937 1.83984375 99.50390625 C1.85330338 98.29759552 1.866763 97.09128479 1.88063049 95.84841919 C1.88400925 94.73071136 1.887388 93.61300354 1.89086914 92.46142578 C1.89832657 91.47626984 1.905784 90.49111389 1.91346741 89.47610474 C1.85358442 86.74326108 1.85358442 86.74326108 -0.3203125 83.99609375 C-2.73375917 83.32865498 -2.73375917 83.32865498 -5.3203125 83.99609375 C-7.65661998 86.39468419 -7.65661998 86.39468419 -9.3203125 88.99609375 C-13.00786007 88.49777651 -14.92521912 87.89541732 -17.3203125 84.99609375 C-16.11676831 80.58309837 -14.88782569 77.91496818 -11.3203125 74.99609375 C-6.84776753 73.50524543 -2.79285747 73.50524543 1.6796875 74.99609375 C2.62797804 66.73538098 2.86596511 58.51639843 2.86499023 50.20849609 C2.8671771 48.13097631 2.88541118 46.0539891 2.90429688 43.9765625 C3.46886672 27.36130705 3.46886672 27.36130705 -3.3203125 12.99609375 C-5.71803112 11.21714123 -6.83909145 10.98406322 -9.8203125 11.05859375 C-13.69648334 12.51215781 -15.51009606 15.37566087 -17.3203125 18.99609375 C-17.5927292 21.55594593 -17.76596231 24.11539311 -17.94140625 26.68359375 C-18.3203125 28.99609375 -18.3203125 28.99609375 -20.3203125 30.99609375 C-22.2578125 30.99609375 -22.2578125 30.99609375 -24.3203125 29.99609375 C-27.56398939 25.63390758 -27.75933389 21.84644459 -27.0078125 16.65625 C-25.49319486 10.79571243 -22.89293819 5.90730983 -17.98046875 2.2578125 C-11.96676849 -1.03165375 -6.5782596 -2.84614936 0 0 Z " fill="#D0D0D0" transform="translate(135.3203125,82.00390625)"/>
<path d="M0 0 C0.33 0 0.66 0 1 0 C1.87534979 5.35489781 2.20246058 10.57528021 2.31640625 15.99609375 C2.33718735 16.82963882 2.35796844 17.6631839 2.37937927 18.52198792 C2.44427856 21.16041561 2.50347978 23.79893491 2.5625 26.4375 C2.60574206 28.23633724 2.64935808 30.03516554 2.69335938 31.83398438 C2.79989799 36.2225646 2.90132975 40.6112361 3 45 C4.09562256 44.51700439 5.19124512 44.03400879 6.32006836 43.53637695 C12.36109657 41.01423866 18.32131319 40.31897793 24.6875 41.9375 C25.450625 42.288125 26.21375 42.63875 27 43 C27 43.33 27 43.66 27 44 C25.42412109 43.91298828 25.42412109 43.91298828 23.81640625 43.82421875 C16.10214336 43.53027208 10.191397 43.32644224 3.6015625 47.90625 C2 49 2 49 0 49 C0 32.83 0 16.66 0 0 Z " fill="#5F5F5F" transform="translate(147,104)"/>
<path d="M0 0 C0.33 0 0.66 0 1 0 C2.83186122 7.00100593 3.26797798 13.37963468 3.1953125 20.59765625 C3.1924826 21.67252792 3.18965271 22.7473996 3.18673706 23.85484314 C3.17562274 27.25751302 3.15053447 30.65991089 3.125 34.0625 C3.11495889 36.38215763 3.10583503 38.70181943 3.09765625 41.02148438 C3.07571212 46.68108097 3.04232265 52.34052104 3 58 C1.68 57.67 0.36 57.34 -1 57 C-0.85780029 56.3186499 -0.71560059 55.6372998 -0.5690918 54.93530273 C0.94017433 46.97645259 1.27923142 39.21421229 1.20581055 31.13696289 C1.18755204 29.06839559 1.18530192 27.00028032 1.18554688 24.93164062 C1.16282654 16.58284913 0.77389619 8.31337278 0 0 Z " fill="#363636" transform="translate(137,101)"/>
<path d="M0 0 C0.66 0 1.32 0 2 0 C2 0.99 2 1.98 2 3 C1.01 3.495 1.01 3.495 0 4 C0 5.98 0 7.96 0 10 C1.65 10.33 3.3 10.66 5 11 C4.67 11.66 4.34 12.32 4 13 C0.31245243 12.50168276 -1.60490662 11.89932357 -4 9 C-2.94124926 5.59687262 -1.99097846 2.98646769 0 0 Z " fill="#636363" transform="translate(122,158)"/>
<path d="M0 0 C0.33 0 0.66 0 1 0 C1 4.95 1 9.9 1 15 C-0.32 14.67 -1.64 14.34 -3 14 C-2.69147815 12.041036 -2.3780582 10.08284287 -2.0625 8.125 C-1.88847656 7.03445312 -1.71445313 5.94390625 -1.53515625 4.8203125 C-1 2 -1 2 0 0 Z " fill="#545454" transform="translate(139,144)"/>
<path d="M0 0 C0.66 0.33 1.32 0.66 2 1 C-0.31 3.31 -2.62 5.62 -5 8 C-5 5 -5 5 -2.5 2.3125 C-1.675 1.549375 -0.85 0.78625 0 0 Z " fill="#E0E0E0" transform="translate(119,85)"/>
</svg>
